<svg id="visual" viewBox="0 0 900 600" width="900" height="600" xmlns="http://www.w3.org/2000/svg" xmlns:xlink="http://www.w3.org/1999/xlink" version="1.1"><rect x="0" y="0" width="900" height="600" fill="#1B1B1B"></rect><path d="M0 370L21.5 376.5C43 383 86 396 128.8 399.5C171.7 403 214.3 397 257.2 389.7C300 382.3 343 373.7 385.8 368.8C428.7 364 471.3 363 514.2 375.5C557 388 600 414 642.8 424C685.7 434 728.3 428 771.2 427C814 426 857 430 878.5 432L900 434L900 601L878.5 601C857 601 814 601 771.2 601C728.3 601 685.7 601 642.8 601C600 601 557 601 514.2 601C471.3 601 428.7 601 385.8 601C343 601 300 601 257.2 601C214.3 601 171.7 601 128.8 601C86 601 43 601 21.5 601L0 601Z" fill="#fcd900"></path><path d="M0 393L21.5 402.2C43 411.3 86 429.7 128.8 440.5C171.7 451.3 214.3 454.7 257.2 450.2C300 445.7 343 433.3 385.8 435.7C428.7 438 471.3 455 514.2 457C557 459 600 446 642.8 444.8C685.7 443.7 728.3 454.3 771.2 453.3C814 452.3 857 439.7 878.5 433.3L900 427L900 601L878.5 601C857 601 814 601 771.2 601C728.3 601 685.7 601 642.8 601C600 601 557 601 514.2 601C471.3 601 428.7 601 385.8 601C343 601 300 601 257.2 601C214.3 601 171.7 601 128.8 601C86 601 43 601 21.5 601L0 601Z" fill="#c3a824"></path><path d="M0 467L21.5 467.8C43 468.7 86 470.3 128.8 473.8C171.7 477.3 214.3 482.7 257.2 480C300 477.3 343 466.7 385.8 463.7C428.7 460.7 471.3 465.3 514.2 465C557 464.7 600 459.3 642.8 463.3C685.7 467.3 728.3 480.7 771.2 479.3C814 478 857 462 878.5 454L900 446L900 601L878.5 601C857 601 814 601 771.2 601C728.3 601 685.7 601 642.8 601C600 601 557 601 514.2 601C471.3 601 428.7 601 385.8 601C343 601 300 601 257.2 601C214.3 601 171.7 601 128.8 601C86 601 43 601 21.5 601L0 601Z" fill="#8c7a2c"></path><path d="M0 537L21.5 531C43 525 86 513 128.8 513C171.7 513 214.3 525 257.2 529.7C300 534.3 343 531.7 385.8 525C428.7 518.3 471.3 507.7 514.2 507.5C557 507.3 600 517.7 642.8 523.7C685.7 529.7 728.3 531.3 771.2 533.5C814 535.7 857 538.3 878.5 539.7L900 541L900 601L878.5 601C857 601 814 601 771.2 601C728.3 601 685.7 601 642.8 601C600 601 557 601 514.2 601C471.3 601 428.7 601 385.8 601C343 601 300 601 257.2 601C214.3 601 171.7 601 128.8 601C86 601 43 601 21.5 601L0 601Z" fill="#584e2c"></path><path d="M0 549L21.5 548.3C43 547.7 86 546.3 128.8 542.8C171.7 539.3 214.3 533.7 257.2 537.2C300 540.7 343 553.3 385.8 559.7C428.7 566 471.3 566 514.2 561.5C557 557 600 548 642.8 547.8C685.7 547.7 728.3 556.3 771.2 557.5C814 558.7 857 552.3 878.5 549.2L900 546L900 601L878.5 601C857 601 814 601 771.2 601C728.3 601 685.7 601 642.8 601C600 601 557 601 514.2 601C471.3 601 428.7 601 385.8 601C343 601 300 601 257.2 601C214.3 601 171.7 601 128.8 601C86 601 43 601 21.5 601L0 601Z" fill="#272727"></path></svg>