<svg id="visual" viewBox="0 0 960 540" width="960" height="540" xmlns="http://www.w3.org/2000/svg" xmlns:xlink="http://www.w3.org/1999/xlink" version="1.1"><path d="M0 361L80 348.5C160 336 320 311 480 303.8C640 296.7 800 307.3 880 312.7L960 318L960 541L880 541C800 541 640 541 480 541C320 541 160 541 80 541L0 541Z" fill="#fcd900"></path><path d="M0 384L80 386.8C160 389.7 320 395.3 480 388.8C640 382.3 800 363.7 880 354.3L960 345L960 541L880 541C800 541 640 541 480 541C320 541 160 541 80 541L0 541Z" fill="#b99e00"></path><path d="M0 432L80 433C160 434 320 436 480 429.2C640 422.3 800 406.7 880 398.8L960 391L960 541L880 541C800 541 640 541 480 541C320 541 160 541 80 541L0 541Z" fill="#7a6700"></path><path d="M0 466L80 458.5C160 451 320 436 480 433.8C640 431.7 800 442.3 880 447.7L960 453L960 541L880 541C800 541 640 541 480 541C320 541 160 541 80 541L0 541Z" fill="#423400"></path><path d="M0 499L80 492C160 485 320 471 480 464.2C640 457.3 800 457.7 880 457.8L960 458L960 541L880 541C800 541 640 541 480 541C320 541 160 541 80 541L0 541Z" fill="#000000"></path></svg>