<svg id="visual" viewBox="0 0 960 540" width="960" height="540" xmlns="http://www.w3.org/2000/svg" xmlns:xlink="http://www.w3.org/1999/xlink" version="1.1"><rect x="0" y="0" width="960" height="540" fill="#272727"></rect><path d="M447 0L435.8 45C424.7 90 402.3 180 399.3 270C396.3 360 412.7 450 420.8 495L429 540L0 540L0 495C0 450 0 360 0 270C0 180 0 90 0 45L0 0Z" fill="#fcd900"></path><path d="M313 0L312.8 45C312.7 90 312.3 180 327.7 270C343 360 374 450 389.5 495L405 540L0 540L0 495C0 450 0 360 0 270C0 180 0 90 0 45L0 0Z" fill="#b99e00"></path><path d="M194 0L219.5 45C245 90 296 180 316.8 270C337.7 360 328.3 450 323.7 495L319 540L0 540L0 495C0 450 0 360 0 270C0 180 0 90 0 45L0 0Z" fill="#7a6700"></path><path d="M168 0L161.3 45C154.7 90 141.3 180 132.7 270C124 360 120 450 118 495L116 540L0 540L0 495C0 450 0 360 0 270C0 180 0 90 0 45L0 0Z" fill="#423400"></path><path d="M64 0L63.7 45C63.3 90 62.7 180 71.2 270C79.7 360 97.3 450 106.2 495L115 540L0 540L0 495C0 450 0 360 0 270C0 180 0 90 0 45L0 0Z" fill="#000000"></path></svg>